<svg xmlns="http://www.w3.org/2000/svg" xmlns:xlink="http://www.w3.org/1999/xlink" width="300" zoomAndPan="magnify" viewBox="0 0 224.87999 225" height="300" preserveAspectRatio="xMidYMid meet" version="1.0"><defs><clipPath id="66b74dba05"><path d="M 0 0.339844 L 224.761719 0.339844 L 224.761719 224.472656 L 0 224.472656 Z M 0 0.339844 " clip-rule="nonzero"/></clipPath></defs><g clip-path="url(#66b74dba05)"><path fill="#ffffff" d="M 217.222656 137.117188 L 196.449219 141.058594 C 194.660156 150.648438 190.917969 159.542969 185.605469 167.292969 L 197.496094 184.75 L 185.023438 197.222656 L 167.566406 185.332031 C 159.8125 190.644531 150.917969 194.382812 141.332031 196.179688 L 137.390625 216.949219 L 119.753906 216.949219 L 115.808594 196.179688 C 106.222656 194.382812 97.328125 190.644531 89.578125 185.332031 L 72.121094 197.222656 L 59.648438 184.75 L 71.535156 167.292969 C 66.222656 159.542969 62.484375 150.648438 60.691406 141.058594 L 39.917969 137.117188 L 39.917969 119.476562 L 60.691406 115.535156 C 62.484375 105.949219 66.222656 97.054688 71.535156 89.300781 L 59.648438 71.847656 L 72.121094 59.375 L 89.578125 71.261719 C 97.328125 65.949219 106.222656 62.210938 115.808594 60.417969 L 119.753906 39.644531 L 137.390625 39.644531 L 141.332031 60.417969 C 150.917969 62.210938 159.8125 65.949219 167.566406 71.261719 L 185.023438 59.375 L 197.496094 71.847656 L 185.605469 89.300781 C 190.917969 97.054688 194.660156 105.949219 196.449219 115.535156 L 217.222656 119.476562 Z M 53.347656 76.136719 L 60.644531 86.847656 C 49.769531 85.191406 41.382812 75.863281 41.382812 64.535156 C 41.382812 52.042969 51.546875 41.875 64.039062 41.875 C 74.875 41.875 83.9375 49.535156 86.15625 59.710938 L 76.410156 53.074219 C 75.105469 52.1875 73.609375 51.753906 72.121094 51.753906 C 70.15625 51.753906 68.207031 52.511719 66.730469 53.984375 L 54.261719 66.457031 C 51.671875 69.046875 51.289062 73.109375 53.347656 76.136719 Z M 35.394531 100.140625 L 26.140625 106.441406 L 22.128906 102.429688 L 28.429688 93.175781 C 29.316406 91.878906 29.3125 90.171875 28.425781 88.878906 C 25.042969 83.941406 22.765625 78.433594 21.660156 72.503906 C 21.371094 70.960938 20.164062 69.75 18.625 69.460938 L 7.605469 67.375 L 7.605469 61.695312 L 18.625 59.609375 C 20.164062 59.316406 21.371094 58.109375 21.660156 56.5625 C 22.765625 50.632812 25.042969 45.121094 28.425781 40.1875 C 29.3125 38.890625 29.316406 37.183594 28.429688 35.890625 L 22.128906 26.632812 L 26.140625 22.621094 L 35.394531 28.921875 C 36.6875 29.8125 38.394531 29.800781 39.691406 28.917969 C 44.632812 25.539062 50.144531 23.261719 56.070312 22.152344 C 57.613281 21.863281 58.824219 20.660156 59.113281 19.117188 L 61.199219 8.101562 L 66.878906 8.101562 L 68.96875 19.117188 C 69.261719 20.660156 70.46875 21.863281 72.011719 22.152344 C 77.9375 23.261719 83.445312 25.539062 88.382812 28.917969 C 89.6875 29.804688 91.386719 29.816406 92.683594 28.921875 L 101.9375 22.621094 L 105.945312 26.632812 L 99.652344 35.890625 C 98.765625 37.183594 98.769531 38.886719 99.65625 40.183594 C 102.761719 44.722656 104.886719 49.757812 106.078125 55.132812 C 101.832031 56.425781 97.746094 58.101562 93.808594 60.109375 C 91.644531 45.527344 79.214844 34.253906 64.039062 34.253906 C 47.34375 34.253906 33.761719 47.839844 33.761719 64.535156 C 33.761719 79.832031 45.210938 92.359375 59.964844 94.375 C 58.007812 98.335938 56.355469 102.425781 55.109375 106.683594 C 49.554688 105.519531 44.363281 103.34375 39.691406 100.144531 C 38.398438 99.265625 36.691406 99.253906 35.394531 100.140625 Z M 218.644531 111.988281 L 202.796875 108.984375 C 201.019531 102.09375 198.320312 95.558594 194.726562 89.453125 L 203.792969 76.136719 C 205.851562 73.109375 205.46875 69.046875 202.882812 66.457031 L 190.410156 53.984375 C 188.9375 52.511719 186.984375 51.753906 185.019531 51.753906 C 183.53125 51.753906 182.035156 52.1875 180.730469 53.074219 L 167.417969 62.144531 C 161.3125 58.550781 154.773438 55.847656 147.886719 54.070312 L 144.878906 38.226562 C 144.195312 34.628906 141.050781 32.023438 137.390625 32.023438 L 119.753906 32.023438 C 116.089844 32.023438 112.945312 34.628906 112.261719 38.222656 L 110.949219 45.140625 C 109.949219 42.707031 108.753906 40.351562 107.371094 38.085938 L 114.023438 28.316406 C 115.054688 26.804688 114.863281 24.773438 113.566406 23.480469 L 105.097656 15 C 103.796875 13.710938 101.769531 13.507812 100.257812 14.546875 L 90.488281 21.203125 C 85.992188 18.453125 81.132812 16.445312 75.980469 15.210938 L 73.777344 3.578125 C 73.433594 1.78125 71.863281 0.480469 70.03125 0.480469 L 58.046875 0.480469 C 56.214844 0.480469 54.644531 1.78125 54.300781 3.578125 L 52.097656 15.210938 C 46.949219 16.441406 42.089844 18.453125 37.59375 21.203125 L 27.824219 14.546875 C 26.3125 13.511719 24.28125 13.710938 22.988281 15 L 14.507812 23.480469 C 13.214844 24.773438 13.023438 26.804688 14.054688 28.316406 L 20.707031 38.085938 C 17.957031 42.578125 15.953125 47.4375 14.71875 52.59375 L 3.085938 54.796875 C 1.289062 55.136719 -0.015625 56.710938 -0.015625 58.539062 L -0.015625 70.527344 C -0.015625 72.359375 1.289062 73.929688 3.085938 74.273438 L 14.71875 76.472656 C 15.953125 81.625 17.957031 86.484375 20.707031 90.980469 L 14.054688 100.753906 C 13.023438 102.261719 13.214844 104.292969 14.507812 105.589844 L 22.988281 114.0625 C 24.28125 115.363281 26.308594 115.554688 27.824219 114.515625 L 37.59375 107.863281 C 39.566406 109.070312 41.625 110.09375 43.738281 110.996094 L 38.5 111.988281 C 34.902344 112.671875 32.296875 115.816406 32.296875 119.476562 L 32.296875 137.117188 C 32.296875 140.78125 34.902344 143.921875 38.5 144.605469 L 54.34375 147.613281 C 56.121094 154.503906 58.824219 161.039062 62.414062 167.144531 L 53.347656 180.457031 C 51.289062 183.484375 51.671875 187.546875 54.261719 190.136719 L 66.730469 202.609375 C 68.207031 204.082031 70.15625 204.84375 72.121094 204.84375 C 73.609375 204.84375 75.105469 204.40625 76.410156 203.519531 L 89.726562 194.453125 C 95.828125 198.046875 102.367188 200.746094 109.253906 202.523438 L 112.261719 218.371094 C 112.945312 221.96875 116.089844 224.570312 119.753906 224.570312 L 137.390625 224.570312 C 141.050781 224.570312 144.195312 221.96875 144.878906 218.371094 L 147.886719 202.523438 C 154.773438 200.746094 161.3125 198.046875 167.417969 194.453125 L 180.734375 203.519531 C 182.035156 204.40625 183.53125 204.84375 185.019531 204.84375 C 186.984375 204.84375 188.9375 204.082031 190.410156 202.609375 L 202.882812 190.136719 C 205.46875 187.546875 205.851562 183.484375 203.792969 180.457031 L 194.726562 167.144531 C 198.320312 161.039062 201.019531 154.503906 202.796875 147.613281 L 218.644531 144.605469 C 222.238281 143.921875 224.84375 140.78125 224.84375 137.117188 L 224.84375 119.476562 C 224.84375 115.816406 222.238281 112.671875 218.644531 111.988281 " fill-opacity="1" fill-rule="nonzero"/></g><path fill="#ffffff" d="M 128.574219 168.996094 C 106.128906 168.996094 87.871094 150.742188 87.871094 128.300781 C 87.871094 105.855469 106.128906 87.597656 128.574219 87.597656 C 151.015625 87.597656 169.269531 105.855469 169.269531 128.300781 C 169.269531 150.742188 151.015625 168.996094 128.574219 168.996094 Z M 128.574219 79.976562 C 101.925781 79.976562 80.25 101.652344 80.25 128.300781 C 80.25 154.941406 101.925781 176.617188 128.574219 176.617188 C 155.214844 176.617188 176.890625 154.941406 176.890625 128.300781 C 176.890625 101.652344 155.214844 79.976562 128.574219 79.976562 " fill-opacity="1" fill-rule="nonzero"/></svg>