<svg xmlns="http://www.w3.org/2000/svg" xmlns:xlink="http://www.w3.org/1999/xlink" width="300" zoomAndPan="magnify" viewBox="0 0 224.87999 225" height="300" preserveAspectRatio="xMidYMid meet" version="1.0"><path fill="#464cbe" d="M 98.527344 12.910156 C 50.847656 18.195312 11.992188 56.667969 6.242188 104.273438 C 5.867188 107.265625 5.625 110.265625 5.507812 113.277344 C 5.394531 116.289062 5.410156 119.300781 5.550781 122.308594 C 5.695312 125.320312 5.96875 128.320312 6.367188 131.304688 C 6.769531 134.292969 7.296875 137.257812 7.949219 140.199219 C 8.605469 143.140625 9.382812 146.046875 10.289062 148.921875 C 11.191406 151.796875 12.21875 154.628906 13.363281 157.414062 C 14.511719 160.199219 15.773438 162.933594 17.15625 165.613281 C 18.539062 168.289062 20.03125 170.90625 21.636719 173.457031 C 23.242188 176.003906 24.953125 178.484375 26.769531 180.886719 C 28.585938 183.289062 30.503906 185.609375 32.523438 187.851562 C 34.539062 190.089844 36.648438 192.238281 38.847656 194.296875 C 41.050781 196.355469 43.335938 198.316406 45.703125 200.175781 C 48.074219 202.039062 50.515625 203.796875 53.035156 205.449219 C 55.554688 207.101562 58.140625 208.644531 60.792969 210.078125 C 63.445312 211.507812 66.15625 212.820312 68.917969 214.019531 C 71.683594 215.21875 74.496094 216.296875 77.351562 217.253906 C 82.613281 218.097656 84.296875 214.835938 84.296875 212 L 84.296875 194.226562 C 55.171875 200.554688 48.972656 180.144531 48.972656 180.144531 C 44.148438 167.945312 37.300781 164.683594 37.300781 164.683594 C 27.730469 158.164062 38.046875 158.378906 38.046875 158.378906 C 48.554688 159.125 54.128906 169.210938 54.128906 169.210938 C 63.277344 185.191406 78.730469 180.457031 84.722656 177.933594 C 85.667969 171.101562 88.441406 166.472656 91.347656 163.84375 C 67.96875 161.214844 43.5 152.171875 43.5 112.121094 C 43.5 100.449219 47.496094 91.09375 54.332031 83.628906 C 53.28125 81 49.597656 70.066406 55.378906 55.871094 C 55.378906 55.871094 64.214844 53.027344 84.296875 66.597656 C 88.582031 65.445312 92.925781 64.578125 97.324219 63.996094 C 101.722656 63.414062 106.140625 63.121094 110.578125 63.121094 C 115.015625 63.121094 119.433594 63.414062 123.835938 63.996094 C 128.234375 64.578125 132.574219 65.445312 136.859375 66.597656 C 156.957031 53.027344 165.777344 55.871094 165.777344 55.871094 C 171.554688 70.066406 167.878906 81 166.828125 83.628906 C 173.660156 91.070312 177.65625 100.449219 177.65625 112.121094 C 177.65625 152.277344 153.050781 161.113281 129.613281 163.738281 C 133.394531 167 136.859375 173.414062 136.859375 183.1875 L 136.859375 212 C 136.859375 214.835938 138.542969 218.199219 143.910156 217.253906 C 145.433594 216.746094 146.945312 216.199219 148.445312 215.621094 C 149.945312 215.039062 151.429688 214.425781 152.898438 213.777344 C 154.371094 213.128906 155.824219 212.449219 157.265625 211.734375 C 158.707031 211.019531 160.128906 210.273438 161.535156 209.492188 C 162.9375 208.710938 164.324219 207.898438 165.695312 207.058594 C 167.0625 206.214844 168.410156 205.339844 169.738281 204.433594 C 171.066406 203.527344 172.375 202.59375 173.660156 201.628906 C 174.945312 200.664062 176.207031 199.667969 177.449219 198.644531 C 178.6875 197.625 179.902344 196.574219 181.09375 195.492188 C 182.285156 194.414062 183.453125 193.308594 184.59375 192.179688 C 185.734375 191.046875 186.851562 189.886719 187.9375 188.703125 C 189.027344 187.523438 190.085938 186.3125 191.117188 185.082031 C 192.152344 183.851562 193.15625 182.597656 194.128906 181.316406 C 195.105469 180.039062 196.050781 178.742188 196.96875 177.421875 C 197.882812 176.097656 198.765625 174.757812 199.621094 173.394531 C 200.476562 172.035156 201.296875 170.652344 202.089844 169.253906 C 202.878906 167.855469 203.640625 166.4375 204.363281 165.003906 C 205.089844 163.570312 205.785156 162.121094 206.441406 160.65625 C 207.101562 159.1875 207.730469 157.707031 208.320312 156.214844 C 208.914062 154.71875 209.46875 153.210938 209.992188 151.691406 C 210.515625 150.171875 211.003906 148.640625 211.453125 147.097656 C 211.90625 145.558594 212.324219 144.003906 212.707031 142.441406 C 213.085938 140.882812 213.433594 139.3125 213.742188 137.734375 C 214.050781 136.15625 214.324219 134.574219 214.5625 132.984375 C 214.800781 131.394531 215 129.800781 215.164062 128.203125 C 215.328125 126.601562 215.453125 125 215.546875 123.394531 C 215.636719 121.789062 215.6875 120.183594 215.707031 118.578125 C 215.722656 116.96875 215.703125 115.363281 215.648438 113.757812 C 215.589844 112.152344 215.496094 110.546875 215.367188 108.945312 C 215.234375 107.34375 215.070312 105.742188 214.867188 104.148438 C 214.664062 102.554688 214.421875 100.964844 214.144531 99.382812 C 213.871094 97.800781 213.558594 96.222656 213.210938 94.652344 C 212.859375 93.085938 212.476562 91.523438 212.054688 89.972656 C 211.636719 88.421875 211.179688 86.878906 210.691406 85.347656 C 210.199219 83.820312 209.675781 82.300781 209.113281 80.792969 C 208.554688 79.285156 207.960938 77.792969 207.332031 76.3125 C 206.703125 74.835938 206.039062 73.371094 205.34375 71.921875 C 204.648438 70.472656 203.921875 69.039062 203.160156 67.625 C 202.398438 66.210938 201.605469 64.8125 200.78125 63.433594 C 199.953125 62.054688 199.097656 60.691406 198.210938 59.351562 C 197.324219 58.011719 196.40625 56.695312 195.457031 55.394531 C 194.507812 54.097656 193.53125 52.824219 192.523438 51.570312 C 191.519531 50.316406 190.484375 49.085938 189.421875 47.878906 C 188.359375 46.675781 187.269531 45.492188 186.152344 44.339844 C 185.035156 43.183594 183.890625 42.050781 182.722656 40.949219 C 181.554688 39.84375 180.359375 38.769531 179.140625 37.71875 C 177.925781 36.671875 176.683594 35.652344 175.417969 34.660156 C 174.152344 33.667969 172.867188 32.707031 171.558594 31.773438 C 170.25 30.839844 168.917969 29.9375 167.570312 29.066406 C 166.21875 28.191406 164.847656 27.351562 163.460938 26.542969 C 162.070312 25.734375 160.664062 24.957031 159.242188 24.210938 C 157.816406 23.464844 156.375 22.753906 154.917969 22.074219 C 153.460938 21.398438 151.988281 20.75 150.503906 20.140625 C 149.015625 19.527344 147.515625 18.953125 146.003906 18.410156 C 144.492188 17.867188 142.964844 17.359375 141.429688 16.886719 C 139.894531 16.414062 138.347656 15.976562 136.789062 15.574219 C 135.234375 15.171875 133.667969 14.804688 132.097656 14.476562 C 130.523438 14.144531 128.945312 13.851562 127.355469 13.59375 C 125.769531 13.335938 124.179688 13.113281 122.582031 12.929688 C 120.984375 12.742188 119.386719 12.59375 117.78125 12.484375 C 116.179688 12.371094 114.574219 12.296875 112.964844 12.257812 C 111.359375 12.222656 109.753906 12.21875 108.144531 12.253906 C 106.539062 12.292969 104.933594 12.363281 103.328125 12.472656 C 101.726562 12.582031 100.125 12.726562 98.527344 12.910156 Z M 98.527344 12.910156 " fill-opacity="1" fill-rule="nonzero"/></svg>