<svg xmlns="http://www.w3.org/2000/svg" xmlns:xlink="http://www.w3.org/1999/xlink" width="300" zoomAndPan="magnify" viewBox="0 0 224.87999 225" height="300" preserveAspectRatio="xMidYMid meet" version="1.0"><defs><clipPath id="993ec92768"><path d="M 54 41 L 169 41 L 169 224.9375 L 54 224.9375 Z M 54 41 " clip-rule="nonzero"/></clipPath><clipPath id="2dbb90b84f"><path d="M 182 101 L 217.792969 101 L 217.792969 110 L 182 110 Z M 182 101 " clip-rule="nonzero"/></clipPath><clipPath id="ec14a7de9b"><path d="M 7.15625 101 L 43 101 L 43 110 L 7.15625 110 Z M 7.15625 101 " clip-rule="nonzero"/></clipPath><clipPath id="8a1118b6b0"><path d="M 108 0.0585938 L 117 0.0585938 L 117 36 L 108 36 Z M 108 0.0585938 " clip-rule="nonzero"/></clipPath></defs><g clip-path="url(#993ec92768)"><path fill="#ffffff" d="M 152.285156 58.894531 C 141.699219 48.167969 127.539062 42.144531 112.484375 41.957031 C 112.25 41.957031 112.015625 41.957031 111.78125 41.957031 C 80.964844 41.957031 55.46875 66.796875 54.808594 97.65625 C 54.480469 111.582031 59.28125 125.085938 68.21875 135.667969 C 80.121094 149.78125 86.09375 156.886719 86.09375 174.054688 L 86.09375 205.386719 C 86.09375 207.457031 87.789062 209.152344 89.859375 209.152344 L 92.726562 209.152344 C 94.46875 218.042969 102.371094 224.816406 111.78125 224.816406 C 121.1875 224.816406 129.09375 218.089844 130.832031 209.152344 L 133.703125 209.152344 C 135.773438 209.152344 137.464844 207.457031 137.464844 205.386719 L 137.464844 174.054688 C 137.464844 156.933594 143.394531 149.875 155.203125 135.855469 L 155.4375 135.574219 C 164.046875 125.320312 168.796875 112.335938 168.796875 98.929688 C 168.75 83.828125 162.917969 69.621094 152.285156 58.894531 Z M 111.78125 217.289062 C 106.558594 217.289062 102.089844 213.902344 100.488281 209.152344 L 123.070312 209.152344 C 121.472656 213.902344 117.003906 217.289062 111.78125 217.289062 Z M 129.9375 201.625 L 93.621094 201.625 L 93.621094 193.484375 L 129.9375 193.484375 Z M 129.9375 185.957031 L 93.621094 185.957031 L 93.621094 177.820312 L 129.9375 177.820312 Z M 118.929688 170.339844 L 104.535156 170.339844 L 104.535156 133.410156 C 104.535156 132.5625 104.253906 131.71875 103.6875 131.058594 L 91.976562 116.429688 L 91.976562 102.878906 L 100.207031 108.382812 C 101.714844 109.371094 103.6875 109.183594 104.957031 107.914062 L 112.0625 100.808594 L 121.988281 108.242188 C 123.304688 109.230469 125.1875 109.230469 126.503906 108.242188 L 132.996094 103.351562 L 132.996094 116.144531 L 119.214844 129.929688 C 118.507812 130.636719 118.085938 131.625 118.132812 132.65625 Z M 149.652344 130.777344 L 149.414062 131.058594 C 138.03125 144.558594 130.878906 153.074219 129.984375 170.339844 L 126.457031 170.339844 L 125.707031 134.164062 L 139.441406 120.425781 C 140.148438 119.722656 140.523438 118.78125 140.523438 117.746094 L 140.523438 95.824219 C 140.523438 94.410156 139.722656 93.09375 138.453125 92.4375 C 137.183594 91.777344 135.632812 91.917969 134.503906 92.8125 L 124.246094 100.527344 L 113.992188 92.8125 C 112.484375 91.683594 110.417969 91.824219 109.050781 93.140625 L 101.855469 100.339844 L 90.328125 92.671875 C 89.152344 91.917969 87.695312 91.824219 86.472656 92.484375 C 85.246094 93.140625 84.496094 94.410156 84.496094 95.824219 L 84.496094 117.746094 C 84.496094 118.59375 84.777344 119.4375 85.34375 120.097656 L 97.054688 134.726562 L 97.054688 170.339844 L 93.527344 170.339844 C 92.632812 152.980469 85.4375 144.417969 73.957031 130.824219 C 66.195312 121.601562 62.054688 109.890625 62.335938 97.800781 C 62.949219 70.796875 85.390625 49.15625 112.390625 49.484375 C 125.46875 49.625 137.75 54.847656 146.96875 64.164062 C 156.191406 73.476562 161.269531 85.851562 161.269531 98.929688 C 161.222656 110.546875 157.128906 121.886719 149.652344 130.777344 Z M 149.652344 130.777344 " fill-opacity="1" fill-rule="nonzero"/></g><g clip-path="url(#2dbb90b84f)"><path fill="#ffffff" d="M 213.960938 101.703125 L 186.0625 101.703125 C 183.992188 101.703125 182.296875 103.398438 182.296875 105.46875 C 182.296875 107.535156 183.992188 109.230469 186.0625 109.230469 L 213.960938 109.230469 C 216.027344 109.230469 217.722656 107.535156 217.722656 105.46875 C 217.722656 103.398438 216.027344 101.703125 213.960938 101.703125 Z M 213.960938 101.703125 " fill-opacity="1" fill-rule="nonzero"/></g><g clip-path="url(#ec14a7de9b)"><path fill="#ffffff" d="M 42.578125 105.46875 C 42.578125 103.398438 40.886719 101.703125 38.816406 101.703125 L 10.917969 101.703125 C 8.847656 101.703125 7.15625 103.398438 7.15625 105.46875 C 7.15625 107.535156 8.847656 109.230469 10.917969 109.230469 L 38.816406 109.230469 C 40.886719 109.230469 42.578125 107.582031 42.578125 105.46875 Z M 42.578125 105.46875 " fill-opacity="1" fill-rule="nonzero"/></g><path fill="#ffffff" d="M 167.152344 154.910156 C 165.691406 153.453125 163.292969 153.453125 161.835938 154.910156 C 160.375 156.367188 160.375 158.765625 161.835938 160.226562 L 181.546875 179.9375 C 182.296875 180.691406 183.238281 181.019531 184.226562 181.019531 C 185.214844 181.019531 186.15625 180.644531 186.910156 179.9375 C 188.367188 178.480469 188.367188 176.078125 186.910156 174.621094 Z M 167.152344 154.910156 " fill-opacity="1" fill-rule="nonzero"/><path fill="#ffffff" d="M 37.96875 31.042969 C 36.511719 32.503906 36.511719 34.902344 37.96875 36.359375 L 57.679688 56.070312 C 58.433594 56.824219 59.375 57.152344 60.363281 57.152344 C 61.300781 57.152344 62.289062 56.777344 63.042969 56.070312 C 64.5 54.613281 64.5 52.214844 63.042969 50.753906 L 43.332031 31.042969 C 41.828125 29.585938 39.472656 29.585938 37.96875 31.042969 Z M 37.96875 31.042969 " fill-opacity="1" fill-rule="nonzero"/><g clip-path="url(#8a1118b6b0)"><path fill="#ffffff" d="M 108.675781 3.945312 L 108.675781 31.84375 C 108.675781 33.914062 110.367188 35.605469 112.4375 35.605469 C 114.507812 35.605469 116.203125 33.914062 116.203125 31.84375 L 116.203125 3.945312 C 116.203125 1.875 114.507812 0.183594 112.4375 0.183594 C 110.367188 0.183594 108.675781 1.875 108.675781 3.945312 Z M 108.675781 3.945312 " fill-opacity="1" fill-rule="nonzero"/></g><path fill="#ffffff" d="M 181.546875 31.042969 L 161.835938 50.753906 C 160.375 52.214844 160.375 54.613281 161.835938 56.070312 C 162.585938 56.824219 163.527344 57.152344 164.515625 57.152344 C 165.503906 57.152344 166.445312 56.777344 167.199219 56.070312 L 186.910156 36.359375 C 188.367188 34.902344 188.367188 32.503906 186.910156 31.042969 C 185.402344 29.585938 183.050781 29.585938 181.546875 31.042969 Z M 181.546875 31.042969 " fill-opacity="1" fill-rule="nonzero"/><path fill="#ffffff" d="M 57.726562 154.910156 L 38.015625 174.621094 C 36.558594 176.078125 36.558594 178.480469 38.015625 179.9375 C 38.769531 180.691406 39.710938 181.019531 40.699219 181.019531 C 41.683594 181.019531 42.625 180.644531 43.378906 179.9375 L 63.089844 160.226562 C 64.546875 158.765625 64.546875 156.367188 63.089844 154.910156 C 61.585938 153.40625 59.183594 153.40625 57.726562 154.910156 Z M 57.726562 154.910156 " fill-opacity="1" fill-rule="nonzero"/></svg>