<svg xmlns="http://www.w3.org/2000/svg" xmlns:xlink="http://www.w3.org/1999/xlink" width="300" zoomAndPan="magnify" viewBox="0 0 224.87999 225" height="300" preserveAspectRatio="xMidYMid meet" version="1.0"><defs><clipPath id="d83cbc685c"><path d="M 17.289062 1 L 207.6875 1 L 207.6875 224.9375 L 17.289062 224.9375 Z M 17.289062 1 " clip-rule="nonzero"/></clipPath></defs><g clip-path="url(#d83cbc685c)"><path fill="#000000" d="M 115.929688 224.230469 C 115.101562 223.910156 114.3125 223.503906 113.566406 223.015625 C 112.117188 222.027344 108.613281 218.363281 108.359375 217.578125 C 108.253906 217.253906 107.082031 216.429688 105.746094 215.753906 C 97.46875 211.550781 85.214844 199.597656 82.609375 193.191406 C 80.734375 188.566406 82.21875 185.484375 86.398438 185.320312 C 88.394531 185.238281 88.382812 185.378906 86.707031 181.664062 C 81.207031 169.472656 76.414062 160.320312 68.417969 146.734375 C 60.332031 132.992188 57.433594 126.6875 55.054688 117.664062 C 52.539062 108.132812 51.605469 99.527344 51.90625 88.714844 C 52.285156 75.179688 55.007812 65.695312 61.25 56.171875 C 67.625 46.445312 78.960938 38.679688 93.34375 34.179688 C 102.066406 31.324219 111.015625 30.0625 120.191406 30.390625 C 130.457031 30.664062 137.058594 32.21875 145.171875 36.269531 C 161.800781 44.570312 172.914062 60.882812 175.957031 81.460938 C 176.710938 86.558594 176.816406 100.933594 176.132812 105.050781 C 174.054688 117.527344 170.46875 126.023438 161.386719 139.980469 C 152.945312 152.957031 148.941406 160.789062 146.539062 169.007812 C 145.988281 170.902344 144.550781 178.035156 144.148438 180.878906 C 143.9375 182.386719 143.972656 182.480469 144.957031 182.988281 C 147.371094 184.234375 148.570312 187.085938 148.289062 190.917969 C 147.761719 198.085938 140.859375 207.5 131.753906 213.476562 C 128.566406 215.566406 128.460938 215.675781 128.460938 216.894531 C 128.460938 219.722656 126.046875 222.710938 122.597656 224.152344 C 121.035156 224.804688 117.644531 224.84375 115.929688 224.230469 Z M 121.703125 220.226562 C 123.097656 219.511719 124.730469 217.820312 124.375 217.460938 C 123.753906 217.449219 123.15625 217.558594 122.582031 217.789062 C 121.003906 218.160156 119.40625 218.398438 117.785156 218.5 C 115.015625 218.695312 114.671875 218.785156 115.042969 219.230469 C 115.660156 219.980469 118.011719 220.96875 119.191406 220.976562 C 120.078125 220.890625 120.914062 220.636719 121.703125 220.226562 Z M 118.289062 204.257812 C 125.566406 203.1875 134.980469 200.164062 141.035156 196.949219 C 142.769531 196.027344 143.039062 195.738281 143.652344 194.097656 C 144.242188 192.515625 144.558594 190.609375 144.226562 190.609375 C 144.167969 190.609375 141.976562 191.589844 139.351562 192.789062 C 133.738281 195.355469 127.621094 197.496094 123.292969 198.40625 C 118.683594 199.378906 110.472656 199.601562 105.164062 198.902344 C 99.519531 198.160156 92.820312 196.484375 88.871094 194.832031 C 87.75 194.367188 88.277344 195.308594 90.839844 198.359375 C 92.535156 200.378906 93.703125 201.476562 94.300781 201.605469 C 94.796875 201.710938 96.875 202.253906 98.917969 202.808594 C 106.210938 204.789062 111.808594 205.207031 118.289062 204.257812 Z M 106.535156 185.996094 C 107.167969 185.363281 106.757812 164.648438 106.039062 160.738281 C 105.160156 155.976562 103.335938 150.75 100.433594 144.707031 C 96.675781 136.886719 95.789062 133.226562 98.03125 134.796875 C 100.5 136.523438 105.222656 144.730469 107.519531 151.289062 C 110.082031 158.617188 110.675781 163.207031 110.707031 176.011719 L 110.734375 186.222656 L 112.421875 186.039062 C 117.152344 185.523438 117.054688 185.550781 116.859375 184.765625 C 116.535156 183.480469 115.6875 176.433594 115.269531 171.542969 C 114.773438 165.78125 115.035156 153.671875 115.78125 147.917969 C 116.878906 139.429688 118.113281 134.640625 120.398438 129.980469 C 121.859375 126.996094 122.855469 125.808594 123.417969 126.371094 C 123.777344 126.726562 123.136719 130.550781 121.535156 137.632812 C 120.730469 141.191406 120.082031 145.105469 119.292969 151.117188 C 118.382812 158.054688 118.902344 172.566406 120.417969 182.59375 C 120.8125 185.203125 120.8125 185.207031 121.851562 185.203125 C 123.402344 185.191406 128.605469 184.359375 134.785156 183.128906 C 140.199219 182.046875 140.28125 182.019531 140.28125 181.152344 C 140.28125 180.128906 141.375 173.945312 142.164062 170.527344 C 144.175781 161.789062 149.585938 150.664062 157.835938 138.296875 C 160.726562 133.960938 164.664062 127.296875 166.007812 124.457031 C 168.0625 120.125 168.253906 119.660156 169.496094 115.917969 C 172.734375 106.179688 173.671875 95.46875 172.3125 83.785156 C 170.710938 70.054688 164.96875 57.648438 156.195312 48.953125 C 148.792969 41.613281 140.558594 37.292969 129.816406 35.109375 C 126.210938 34.375 124.632812 34.246094 119.007812 34.214844 C 111.40625 34.058594 103.960938 35.0625 96.671875 37.222656 C 82.601562 41.171875 70.824219 48.847656 64.570312 58.144531 C 62.214844 61.8125 60.289062 65.691406 58.792969 69.78125 C 56.5 76.667969 55.285156 86.492188 55.65625 95.082031 C 56.230469 108.339844 58.648438 119.027344 63.445312 129.519531 C 65.664062 134.371094 65.976562 134.941406 71.757812 144.703125 C 74.121094 148.695312 77.21875 154.085938 78.644531 156.6875 C 82.515625 163.742188 90.832031 180.523438 92.066406 183.765625 L 93.144531 186.609375 L 99.644531 186.5 C 104.023438 186.425781 106.277344 186.261719 106.539062 185.992188 Z M 91.019531 130.167969 C 84.8125 129.363281 81.007812 126.453125 79.445312 121.316406 C 78.808594 119.21875 78.757812 118.640625 79.066406 116.851562 C 79.773438 112.71875 82.277344 109.195312 85.671875 107.546875 C 86.792969 107.003906 87.359375 106.410156 88.125 104.980469 C 90.148438 101.210938 94.582031 98.183594 99.136719 97.46875 C 102.203125 97.082031 105.183594 97.421875 108.082031 98.488281 C 108.671875 98.765625 109.28125 98.980469 109.90625 99.144531 C 110.730469 98.785156 111.503906 98.347656 112.234375 97.832031 C 117.304688 94.558594 124.6875 94.214844 130.421875 96.992188 C 132.710938 98.101562 135.972656 101.117188 137.152344 103.214844 C 137.75 104.386719 138.652344 105.234375 139.863281 105.753906 C 144.738281 108.21875 147.691406 114.523438 146.707031 120.355469 C 145.640625 126.683594 140.054688 130.816406 133.898438 129.832031 C 131.875 129.507812 130.492188 128.816406 130.492188 128.128906 C 130.492188 127.976562 131.136719 127.699219 131.925781 127.507812 C 135.144531 126.722656 138.167969 125.691406 139.515625 124.917969 C 143.339844 122.71875 144.132812 116.582031 141.175781 112.046875 L 140.132812 110.449219 L 139.917969 112.996094 C 139.375 119.332031 135.417969 123.085938 130.746094 121.691406 C 128.800781 121.113281 125.949219 118.324219 125.460938 116.523438 C 124.476562 112.917969 125.519531 108.699219 127.890625 106.699219 C 129.195312 105.601562 131.390625 104.5625 132.433594 104.550781 C 133.539062 104.539062 133.378906 104.125 131.648438 102.53125 C 130.890625 101.855469 130.074219 101.269531 129.191406 100.769531 C 128.304688 100.273438 127.378906 99.875 126.410156 99.582031 C 125.4375 99.289062 124.449219 99.101562 123.4375 99.023438 C 122.425781 98.945312 121.417969 98.980469 120.414062 99.121094 C 118.105469 99.421875 114.453125 100.621094 114.09375 101.203125 C 113.980469 101.382812 114.726562 102.429688 115.75 103.535156 C 120.230469 108.375 121.292969 114.339844 118.199219 117.335938 C 115.894531 119.570312 112.316406 119.035156 109.191406 115.996094 C 108.429688 115.273438 107.789062 114.457031 107.265625 113.546875 C 106.746094 112.636719 106.363281 111.671875 106.125 110.648438 C 105.886719 109.628906 105.800781 108.59375 105.863281 107.546875 C 105.929688 106.5 106.140625 105.484375 106.503906 104.5 C 107.375 102.109375 107.351562 102.074219 104.515625 101.480469 C 101.835938 100.914062 99.230469 101.164062 96.707031 102.230469 C 94.90625 103.0625 92.332031 105.011719 92.332031 105.546875 C 92.332031 105.691406 93.210938 105.980469 94.285156 106.191406 C 97.863281 106.894531 100.1875 108.554688 101.621094 111.425781 C 103.519531 115.234375 102.085938 119.386719 98.273438 121.113281 C 93.421875 123.316406 87.421875 119.234375 86.421875 113.039062 L 86.183594 111.578125 L 85.375 112.339844 C 84.628906 113.136719 84.039062 114.039062 83.609375 115.046875 C 83.183594 116.054688 82.941406 117.101562 82.882812 118.195312 C 82.902344 122.1875 85.546875 125.035156 90.277344 126.148438 C 92.28125 126.621094 98.824219 126.4375 100.605469 125.863281 C 105.066406 124.417969 105.1875 124.394531 106.039062 124.953125 C 106.273438 125.121094 106.460938 125.328125 106.601562 125.578125 C 106.742188 125.828125 106.820312 126.097656 106.84375 126.382812 C 106.863281 126.667969 106.824219 126.945312 106.722656 127.214844 C 106.621094 127.480469 106.464844 127.714844 106.261719 127.914062 C 105.121094 128.925781 97.488281 130.589844 94.460938 130.492188 C 93.753906 130.46875 92.203125 130.320312 91.015625 130.167969 Z M 134.132812 117.519531 C 134.699219 117.027344 135.125 116.4375 135.414062 115.746094 C 135.988281 114.386719 136.097656 111.042969 135.625 109.441406 C 135.347656 108.496094 135.21875 108.429688 133.75 108.449219 C 131.96875 108.472656 130.757812 109.199219 129.5625 110.957031 C 127.230469 114.382812 130.960938 119.738281 134.132812 117.519531 Z M 97.535156 116.949219 C 98.789062 115.828125 98.914062 114.75 97.988281 113 C 96.925781 110.988281 94.972656 109.945312 92.28125 109.945312 L 90.304688 109.945312 L 90.304688 111.5625 C 90.304688 116.003906 94.820312 119.371094 97.535156 116.949219 Z M 115.417969 114.578125 C 116.296875 113.933594 116.203125 111.699219 115.207031 109.519531 C 114.28125 107.503906 111.535156 104.390625 110.871094 104.613281 C 109.617188 105.03125 109.320312 109.234375 110.402344 111.292969 C 111.085938 112.59375 113.78125 114.953125 114.640625 115 C 114.925781 114.910156 115.1875 114.769531 115.417969 114.574219 Z M 198.027344 120.867188 C 195.210938 120.414062 189.757812 118.496094 184.757812 116.207031 C 181.835938 114.871094 181.453125 113.039062 183.839844 111.804688 C 185.179688 111.113281 186.089844 111.164062 188.792969 112.082031 C 192.582031 113.441406 196.277344 115.011719 199.882812 116.792969 C 201.011719 117.429688 201.253906 117.753906 201.335938 118.757812 C 201.476562 120.4375 200.25 121.226562 198.027344 120.863281 Z M 21.082031 113.21875 C 20.511719 112.878906 20.074219 112.410156 19.769531 111.820312 C 18.722656 109.632812 21.152344 107.976562 27.011719 106.882812 C 29.042969 106.5 31.738281 105.886719 33.007812 105.515625 C 35.863281 104.675781 36.949219 104.777344 37.59375 105.933594 C 38.414062 107.402344 37.652344 108.636719 35.160156 109.878906 C 32.3125 111.296875 29.339844 112.375 26.246094 113.105469 C 23.347656 113.765625 22.207031 113.789062 21.082031 113.21875 Z M 192.25 89.058594 C 187.257812 88.832031 186.542969 88.574219 186.542969 87.003906 C 186.542969 85.734375 187.871094 84.417969 189.625 83.945312 C 191.1875 83.523438 196.160156 83.679688 202.046875 84.335938 C 205.402344 84.707031 206.792969 85.089844 207.214844 85.75 C 207.441406 86.214844 207.515625 86.703125 207.433594 87.214844 C 207.355469 87.726562 207.132812 88.167969 206.773438 88.539062 C 206.164062 89.089844 205.464844 89.183594 201.457031 89.222656 C 198.917969 89.25 194.773438 89.175781 192.25 89.058594 Z M 19.054688 84.714844 C 17.777344 84.078125 17.296875 82.6875 18.121094 82.007812 C 18.367188 81.800781 20.457031 81.46875 22.769531 81.269531 C 27.0625 80.898438 28.246094 80.664062 31.625 79.535156 C 34.046875 78.726562 35.34375 78.71875 36.054688 79.511719 C 36.886719 80.425781 36.777344 82.148438 35.855469 82.734375 C 34.96875 83.300781 31.40625 84.101562 26.652344 84.800781 C 22.246094 85.453125 20.496094 85.433594 19.058594 84.714844 Z M 35.769531 61.535156 C 30.503906 60.402344 25.148438 59.023438 24.136719 58.542969 C 23.164062 58.078125 22.769531 56.25 23.460938 55.414062 C 24.128906 54.613281 27.746094 54.890625 34.925781 56.296875 C 37.621094 56.824219 41.078125 57.972656 41.761719 58.570312 C 42.445312 59.164062 42.539062 60.628906 41.929688 61.441406 C 41.246094 62.359375 39.707031 62.382812 35.769531 61.535156 Z M 178.925781 57.476562 C 178.253906 56.449219 178.523438 55.492188 179.726562 54.640625 C 181.488281 53.398438 192.285156 48.453125 193.632812 48.269531 C 195.792969 47.980469 196.949219 49.441406 195.988281 51.238281 C 195.550781 52.054688 192.925781 53.386719 187.847656 55.367188 C 185.6875 56.210938 183.296875 57.21875 182.542969 57.601562 C 180.699219 58.542969 179.601562 58.503906 178.925781 57.476562 Z M 44.886719 43.050781 C 40.765625 40.257812 36.550781 36.957031 35.476562 35.679688 C 33.988281 33.910156 34.605469 31.640625 36.574219 31.640625 C 37.917969 31.640625 41.0625 33.605469 46.617188 37.917969 C 50.101562 40.621094 51.132812 41.84375 51.132812 43.242188 C 51.132812 45.910156 49.003906 45.84375 44.886719 43.050781 Z M 158.988281 34.417969 C 158.140625 33.851562 157.84375 32.746094 158.238281 31.589844 C 158.671875 30.3125 162.449219 25.140625 164.914062 22.445312 C 167.597656 19.507812 170.722656 19.207031 170.9375 21.863281 C 171.140625 24.335938 162.535156 34.6875 160.285156 34.675781 C 159.832031 34.6875 159.402344 34.601562 158.988281 34.421875 Z M 68.933594 30.542969 C 68.230469 30.015625 62.171875 18.941406 61.253906 16.507812 C 60.679688 14.972656 60.644531 14.578125 61.007812 13.808594 C 61.339844 13.117188 61.722656 12.882812 62.660156 12.804688 C 63.722656 12.714844 64.03125 12.875 65.03125 14.042969 C 66.539062 15.804688 69.261719 20.605469 70.847656 24.296875 C 71.933594 26.832031 72.082031 27.46875 71.882812 28.78125 C 71.585938 30.773438 70.285156 31.550781 68.933594 30.542969 Z M 126.777344 23.445312 C 125.585938 22.84375 125.566406 21.628906 126.625 14.382812 C 127.367188 9.292969 127.671875 8.007812 128.378906 6.941406 C 129.019531 5.972656 129.460938 5.652344 130.148438 5.652344 C 132.238281 5.652344 132.65625 7.820312 131.65625 13.519531 C 130.75 18.707031 129.597656 22.628906 128.789062 23.28125 C 127.914062 23.988281 127.863281 23.992188 126.773438 23.445312 Z M 94.277344 21.597656 C 93.203125 20.933594 92.808594 19.851562 92.53125 16.789062 C 92.421875 15.582031 92.101562 12.417969 91.820312 9.757812 C 91.261719 4.449219 91.449219 2.773438 92.691406 2.003906 C 95.753906 0.101562 98.828125 6.277344 98.878906 14.429688 C 98.921875 21.09375 97.367188 23.515625 94.277344 21.597656 Z M 94.277344 21.597656 " fill-opacity="1" fill-rule="nonzero"/></g></svg>