<svg xmlns="http://www.w3.org/2000/svg" xmlns:xlink="http://www.w3.org/1999/xlink" width="300" zoomAndPan="magnify" viewBox="0 0 224.87999 225" height="300" preserveAspectRatio="xMidYMid meet" version="1.0"><defs><clipPath id="908532057e"><path d="M 12 1 L 213.496094 1 L 213.496094 224.9375 L 12 224.9375 Z M 12 1 " clip-rule="nonzero"/></clipPath></defs><g clip-path="url(#908532057e)"><path fill="#ffffff" d="M 15.550781 205.808594 C 15.027344 206.328125 14.558594 206.894531 14.148438 207.507812 C 13.734375 208.121094 13.386719 208.769531 13.101562 209.449219 C 12.820312 210.132812 12.605469 210.832031 12.460938 211.558594 C 12.3125 212.28125 12.242188 213.011719 12.242188 213.75 C 12.242188 214.492188 12.3125 215.222656 12.460938 215.945312 C 12.605469 216.671875 12.820312 217.371094 13.101562 218.054688 C 13.386719 218.734375 13.734375 219.382812 14.148438 219.996094 C 14.558594 220.609375 15.027344 221.175781 15.550781 221.695312 C 16.070312 222.21875 16.636719 222.6875 17.25 223.101562 C 17.863281 223.511719 18.511719 223.859375 19.191406 224.144531 C 19.875 224.429688 20.578125 224.644531 21.300781 224.789062 C 22.023438 224.933594 22.757812 225.003906 23.496094 225.003906 C 24.234375 225.003906 24.964844 224.933594 25.6875 224.789062 C 26.414062 224.644531 27.117188 224.429688 27.796875 224.144531 C 28.480469 223.859375 29.125 223.511719 29.738281 223.101562 C 30.351562 222.6875 30.917969 222.21875 31.4375 221.695312 L 132.132812 121.003906 C 132.65625 120.484375 133.125 119.917969 133.535156 119.304688 C 133.949219 118.691406 134.296875 118.042969 134.578125 117.363281 C 134.863281 116.679688 135.078125 115.976562 135.222656 115.253906 C 135.367188 114.527344 135.441406 113.796875 135.441406 113.058594 C 135.441406 112.320312 135.367188 111.589844 135.222656 110.867188 C 135.078125 110.140625 134.863281 109.4375 134.578125 108.757812 C 134.296875 108.074219 133.949219 107.429688 133.535156 106.816406 C 133.125 106.203125 132.65625 105.636719 132.132812 105.117188 L 31.4375 4.421875 C 30.917969 3.902344 30.347656 3.4375 29.734375 3.027344 C 29.121094 2.617188 28.476562 2.269531 27.792969 1.988281 C 27.113281 1.707031 26.410156 1.492188 25.6875 1.347656 C 24.964844 1.203125 24.234375 1.132812 23.496094 1.132812 C 22.757812 1.132812 22.027344 1.203125 21.304688 1.347656 C 20.578125 1.492188 19.878906 1.707031 19.195312 1.988281 C 18.515625 2.269531 17.867188 2.617188 17.253906 3.027344 C 16.640625 3.4375 16.074219 3.902344 15.550781 4.421875 C 15.03125 4.945312 14.5625 5.511719 14.15625 6.125 C 13.746094 6.738281 13.398438 7.386719 13.117188 8.066406 C 12.835938 8.75 12.621094 9.453125 12.476562 10.175781 C 12.332031 10.898438 12.261719 11.628906 12.261719 12.367188 C 12.261719 13.105469 12.332031 13.835938 12.476562 14.558594 C 12.621094 15.28125 12.835938 15.984375 13.117188 16.664062 C 13.398438 17.347656 13.746094 17.996094 14.15625 18.609375 C 14.5625 19.222656 15.03125 19.789062 15.550781 20.308594 L 108.414062 113.058594 Z M 186.730469 113.058594 L 93.867188 20.308594 C 93.347656 19.789062 92.878906 19.222656 92.472656 18.609375 C 92.0625 17.996094 91.714844 17.347656 91.433594 16.664062 C 91.148438 15.984375 90.9375 15.28125 90.792969 14.558594 C 90.648438 13.835938 90.578125 13.105469 90.578125 12.367188 C 90.578125 11.628906 90.648438 10.898438 90.792969 10.175781 C 90.9375 9.453125 91.148438 8.75 91.433594 8.066406 C 91.714844 7.386719 92.0625 6.738281 92.472656 6.125 C 92.878906 5.511719 93.347656 4.945312 93.867188 4.421875 C 94.390625 3.902344 94.957031 3.4375 95.570312 3.027344 C 96.183594 2.617188 96.832031 2.269531 97.511719 1.988281 C 98.195312 1.707031 98.894531 1.492188 99.621094 1.347656 C 100.34375 1.203125 101.074219 1.132812 101.8125 1.132812 C 102.550781 1.132812 103.28125 1.203125 104.003906 1.347656 C 104.726562 1.492188 105.429688 1.707031 106.109375 1.988281 C 106.792969 2.269531 107.4375 2.617188 108.050781 3.027344 C 108.664062 3.4375 109.234375 3.902344 109.753906 4.421875 L 210.449219 105.117188 C 210.972656 105.636719 211.441406 106.203125 211.851562 106.816406 C 212.265625 107.429688 212.613281 108.074219 212.894531 108.757812 C 213.179688 109.4375 213.394531 110.140625 213.539062 110.867188 C 213.683594 111.589844 213.757812 112.320312 213.757812 113.058594 C 213.757812 113.796875 213.683594 114.527344 213.539062 115.253906 C 213.394531 115.976562 213.179688 116.679688 212.894531 117.363281 C 212.613281 118.042969 212.265625 118.691406 211.851562 119.304688 C 211.441406 119.917969 210.972656 120.484375 210.449219 121.003906 L 109.753906 221.695312 C 109.234375 222.21875 108.667969 222.6875 108.054688 223.101562 C 107.441406 223.511719 106.796875 223.859375 106.113281 224.144531 C 105.433594 224.429688 104.730469 224.644531 104.003906 224.789062 C 103.28125 224.933594 102.550781 225.003906 101.8125 225.003906 C 101.074219 225.003906 100.339844 224.933594 99.617188 224.789062 C 98.894531 224.644531 98.191406 224.429688 97.507812 224.144531 C 96.828125 223.859375 96.179688 223.511719 95.566406 223.101562 C 94.953125 222.6875 94.386719 222.21875 93.867188 221.695312 C 93.34375 221.175781 92.875 220.609375 92.464844 219.996094 C 92.050781 219.382812 91.703125 218.734375 91.417969 218.054688 C 91.136719 217.371094 90.921875 216.671875 90.777344 215.945312 C 90.628906 215.222656 90.558594 214.492188 90.558594 213.75 C 90.558594 213.011719 90.628906 212.28125 90.777344 211.558594 C 90.921875 210.832031 91.136719 210.132812 91.417969 209.449219 C 91.703125 208.769531 92.050781 208.121094 92.464844 207.507812 C 92.875 206.894531 93.34375 206.328125 93.867188 205.808594 Z M 186.730469 113.058594 " fill-opacity="1" fill-rule="nonzero"/></g></svg>