<svg xmlns="http://www.w3.org/2000/svg" xmlns:xlink="http://www.w3.org/1999/xlink" width="300" zoomAndPan="magnify" viewBox="0 0 224.87999 225" height="300" preserveAspectRatio="xMidYMid meet" version="1.0"><defs><clipPath id="841196da2a"><path d="M 167 49 L 224.761719 49 L 224.761719 162 L 167 162 Z M 167 49 " clip-rule="nonzero"/></clipPath></defs><path fill="#000000" d="M 155.199219 34.289062 C 155.03125 37.714844 153.621094 40.761719 152 43.695312 C 147.542969 51.765625 143.816406 60.167969 140.257812 68.652344 C 136.945312 76.566406 133.042969 84.183594 129.007812 91.742188 C 126.976562 95.550781 125.675781 99.746094 123.996094 103.75 C 121.085938 110.679688 117.230469 117.148438 114.1875 124.011719 C 108.992188 135.738281 102.160156 146.613281 96.652344 158.191406 C 93.261719 165.320312 91.09375 172.839844 88.160156 180.101562 C 86.476562 184.273438 84.566406 188.351562 81.824219 191.921875 C 79.019531 195.5625 78.476562 194.683594 75.433594 191.769531 C 73.917969 190.328125 73.089844 188.125 72.082031 186.195312 C 70.726562 183.589844 72.011719 181.445312 73.511719 179.410156 C 74.964844 177.445312 76.480469 175.535156 75.773438 172.824219 C 75.636719 172.320312 75.890625 171.871094 76.148438 171.429688 C 79.347656 166.003906 80.480469 159.757812 83.003906 154.070312 C 87.09375 144.867188 89.886719 135.085938 95.011719 126.332031 C 99.445312 118.75 102.179688 110.335938 106.464844 102.695312 C 109.621094 97.0625 113.246094 91.699219 116.550781 86.152344 C 122.683594 75.875 127.976562 65.1875 132.578125 54.125 C 135.746094 46.511719 139.800781 39.332031 144.085938 32.289062 C 144.996094 30.792969 146.503906 31.101562 147.8125 30.839844 C 149.523438 30.496094 151.050781 29.878906 153.050781 30.765625 C 154.949219 31.609375 155.359375 32.527344 155.1875 34.265625 Z M 155.199219 34.289062 " fill-opacity="1" fill-rule="nonzero"/><path fill="#000000" d="M 18.882812 106.1875 C 20.882812 107.082031 20.851562 109.117188 21.746094 110.601562 C 24.359375 114.921875 27.9375 118.308594 32.011719 121.179688 C 33.386719 122.148438 34.226562 123.542969 35.40625 124.609375 C 38.914062 127.765625 42.246094 131.082031 46.179688 133.832031 C 49.847656 136.386719 53.617188 138.890625 56.972656 141.9375 C 59.261719 144.011719 61.328125 146.378906 64.074219 147.949219 C 65.074219 148.523438 65.625 149.433594 65.550781 150.777344 C 65.425781 153.1875 64.972656 155.355469 63.921875 157.628906 C 63.09375 159.429688 62.507812 161.460938 61.511719 163.234375 C 60.34375 165.320312 58.640625 165.621094 56.621094 164.355469 C 51 160.824219 45.433594 157.070312 40.960938 152.226562 C 37.613281 148.597656 33.480469 146.300781 29.703125 143.417969 C 26.257812 140.785156 23.792969 137.328125 21.011719 134.136719 C 17.578125 130.203125 14.257812 126.164062 11.042969 122.050781 C 7.371094 117.355469 4.109375 112.375 1.433594 107.015625 C 0.0546875 104.246094 0.871094 102.027344 2.625 99.847656 C 5.980469 95.664062 9.101562 91.277344 12.699219 87.316406 C 15.828125 83.875 19.03125 80.496094 22.003906 76.921875 C 24.988281 73.332031 28.429688 70.222656 31.800781 67.007812 C 35.925781 63.078125 39.25 58.378906 42.417969 53.632812 C 43.710938 51.699219 45.246094 50.402344 47.632812 50.230469 C 48.527344 50.164062 49.425781 49.945312 50.304688 49.746094 C 53.96875 48.898438 56.476562 51.359375 55.542969 54.964844 C 54.714844 58.175781 53.363281 61.199219 51.765625 64.082031 C 48.632812 69.730469 45.539062 75.421875 41.433594 80.453125 C 39.066406 83.359375 36.078125 85.648438 33.71875 88.621094 C 28.996094 94.582031 23.921875 100.257812 18.875 106.191406 Z M 18.882812 106.1875 " fill-opacity="1" fill-rule="nonzero"/><g clip-path="url(#841196da2a)"><path fill="#000000" d="M 223.957031 99.097656 C 223.3125 102.628906 222.539062 106.125 219.589844 108.75 C 214.707031 113.101562 211.738281 118.820312 208.457031 124.363281 C 205.53125 129.308594 202.277344 134.117188 198.210938 138.246094 C 194.632812 141.882812 191.535156 145.902344 188.601562 150.058594 C 187.601562 151.480469 186.414062 152.617188 185.035156 153.613281 C 182.4375 155.492188 180.722656 158.257812 178.335938 160.363281 C 176.925781 161.605469 175.828125 161.867188 174.085938 160.636719 C 170.828125 158.320312 169.46875 154.914062 167.980469 151.511719 C 167.011719 149.316406 167.851562 147.570312 169.253906 145.914062 C 174.433594 139.796875 180.027344 134.039062 184.714844 127.496094 C 185.164062 126.867188 185.738281 126.296875 186.347656 125.8125 C 191.488281 121.714844 195.601562 116.617188 199.605469 111.503906 C 202.433594 107.898438 205.082031 104.15625 208.28125 100.867188 C 209.109375 100.011719 208.925781 99.59375 208.203125 98.832031 C 202.03125 92.296875 195.839844 85.765625 189.785156 79.125 C 185.285156 74.183594 180.316406 69.785156 175.261719 65.441406 C 172.050781 62.683594 170.222656 58.875 169.253906 54.753906 C 168.757812 52.644531 169.699219 51.550781 171.878906 51.089844 C 173.714844 50.699219 175.542969 50.257812 177.378906 49.863281 C 179.394531 49.429688 180.984375 50.742188 182.308594 51.703125 C 186.414062 54.667969 190.519531 57.648438 194.410156 60.941406 C 197.699219 63.730469 200.179688 67.160156 203.042969 70.269531 C 205.660156 73.109375 208.25 76.015625 210.40625 79.257812 C 210.984375 80.128906 211.746094 80.933594 212.117188 81.886719 C 214.109375 86.980469 218.511719 90.265625 221.503906 94.609375 C 222.472656 96.015625 224.824219 96.605469 223.972656 99.117188 Z M 223.957031 99.097656 " fill-opacity="1" fill-rule="nonzero"/></g></svg>