<svg xmlns="http://www.w3.org/2000/svg" xmlns:xlink="http://www.w3.org/1999/xlink" width="300" zoomAndPan="magnify" viewBox="0 0 224.87999 225" height="300" preserveAspectRatio="xMidYMid meet" version="1.0"><defs><clipPath id="111b9580b2"><path d="M 7.023438 7.085938 L 217.664062 7.085938 L 217.664062 217.722656 L 7.023438 217.722656 Z M 7.023438 7.085938 " clip-rule="nonzero"/></clipPath></defs><g clip-path="url(#111b9580b2)"><path fill="#464cbe" d="M 200.238281 7.085938 L 24.742188 7.085938 C 15.039062 7.085938 7.234375 14.996094 7.234375 24.59375 L 7.234375 200.402344 C 7.234375 210.105469 15.144531 217.910156 24.742188 217.910156 L 200.132812 217.910156 C 209.835938 217.910156 217.640625 210 217.640625 200.402344 L 217.640625 24.59375 C 217.746094 14.996094 209.941406 7.085938 200.238281 7.085938 Z M 69.566406 180.996094 L 38.453125 180.996094 L 38.453125 87.554688 L 69.566406 87.554688 Z M 53.957031 76.269531 C 44.148438 76.269531 36.238281 68.359375 36.238281 58.550781 C 36.238281 48.742188 44.148438 40.832031 53.957031 40.832031 C 63.765625 40.832031 71.675781 48.742188 71.675781 58.550781 C 71.675781 68.359375 63.765625 76.269531 53.957031 76.269531 Z M 186.632812 180.996094 L 155.414062 180.996094 L 154.675781 125.523438 C 154.675781 125.523438 155.414062 110.757812 139.277344 110.863281 C 123.140625 110.96875 120.925781 125.523438 120.925781 125.523438 L 120.925781 180.996094 L 89.5 180.996094 L 89.5 87.554688 L 119.660156 87.554688 L 119.660156 100.421875 C 119.660156 100.421875 120.925781 96.203125 127.886719 91.246094 C 134.847656 86.289062 146.34375 85.234375 151.300781 85.445312 C 156.257812 85.65625 163.007812 84.8125 174.292969 92.617188 C 186.421875 100.949219 186.738281 122.78125 186.738281 122.78125 Z M 186.632812 180.996094 " fill-opacity="1" fill-rule="nonzero"/></g></svg>