<svg xmlns="http://www.w3.org/2000/svg" xmlns:xlink="http://www.w3.org/1999/xlink" width="300" zoomAndPan="magnify" viewBox="0 0 224.87999 225" height="300" preserveAspectRatio="xMidYMid meet" version="1.0"><defs><clipPath id="29d1ca4da0"><path d="M 0 0.0585938 L 224.609375 0.0585938 L 224.609375 224.667969 L 0 224.667969 Z M 0 0.0585938 " clip-rule="nonzero"/></clipPath><clipPath id="88edf8e1e6"><path d="M 0 0.0585938 L 199.925781 0.0585938 L 199.925781 180.472656 L 0 180.472656 Z M 0 0.0585938 " clip-rule="nonzero"/></clipPath><clipPath id="c375ccade4"><path d="M 0 0.0585938 L 125.878906 0.0585938 L 125.878906 143.449219 L 0 143.449219 Z M 0 0.0585938 " clip-rule="nonzero"/></clipPath></defs><g clip-path="url(#29d1ca4da0)"><path fill="#2c74b3" d="M 80.070312 -64.675781 C 0.175781 -64.675781 -64.734375 0.234375 -64.734375 80.132812 C -64.734375 160.027344 0.175781 224.9375 80.070312 224.9375 C 159.96875 224.9375 224.878906 160.027344 224.878906 80.132812 C 224.878906 0.234375 159.96875 -64.675781 80.070312 -64.675781 Z M 80.070312 -58.378906 C 156.648438 -58.378906 218.582031 3.554688 218.582031 80.132812 C 218.582031 156.710938 156.648438 218.644531 80.070312 218.644531 C 3.492188 218.644531 -58.441406 156.710938 -58.441406 80.132812 C -58.441406 3.554688 3.492188 -58.378906 80.070312 -58.378906 Z M 80.070312 -58.378906 " fill-opacity="1" fill-rule="nonzero"/></g><g clip-path="url(#88edf8e1e6)"><path fill="#2c74b3" d="M 55.390625 -108.871094 C -24.507812 -108.871094 -89.417969 -43.960938 -89.417969 35.9375 C -89.417969 115.832031 -24.507812 180.742188 55.390625 180.742188 C 135.285156 180.742188 200.195312 115.832031 200.195312 35.9375 C 200.195312 -43.960938 135.285156 -108.871094 55.390625 -108.871094 Z M 55.390625 -102.574219 C 131.964844 -102.574219 193.898438 -40.640625 193.898438 35.9375 C 193.898438 112.515625 131.964844 174.449219 55.390625 174.449219 C -21.1875 174.449219 -83.121094 112.515625 -83.121094 35.9375 C -83.121094 -40.640625 -21.1875 -102.574219 55.390625 -102.574219 Z M 55.390625 -102.574219 " fill-opacity="1" fill-rule="nonzero"/></g><g clip-path="url(#c375ccade4)"><path fill="#2c74b3" d="M -18.660156 -145.894531 C -98.554688 -145.894531 -163.46875 -80.984375 -163.46875 -1.085938 C -163.46875 78.808594 -98.554688 143.71875 -18.660156 143.71875 C 61.238281 143.71875 126.148438 78.808594 126.148438 -1.085938 C 126.148438 -80.984375 61.238281 -145.894531 -18.660156 -145.894531 Z M -18.660156 -139.597656 C 57.917969 -139.597656 119.851562 -77.664062 119.851562 -1.085938 C 119.851562 75.492188 57.917969 137.421875 -18.660156 137.421875 C -95.238281 137.421875 -157.171875 75.492188 -157.171875 -1.085938 C -157.171875 -77.664062 -95.238281 -139.597656 -18.660156 -139.597656 Z M -18.660156 -139.597656 " fill-opacity="1" fill-rule="nonzero"/></g></svg>