<svg xmlns="http://www.w3.org/2000/svg" xmlns:xlink="http://www.w3.org/1999/xlink" width="300" zoomAndPan="magnify" viewBox="0 0 224.87999 225" height="300" preserveAspectRatio="xMidYMid meet" version="1.0"><defs><clipPath id="52a40de81e"><path d="M 11.101562 1 L 213 1 L 213 224.9375 L 11.101562 224.9375 Z M 11.101562 1 " clip-rule="nonzero"/></clipPath></defs><g clip-path="url(#52a40de81e)"><path fill="#ffffff" d="M 209.328125 205.808594 C 209.851562 206.328125 210.320312 206.894531 210.734375 207.507812 C 211.144531 208.121094 211.492188 208.769531 211.777344 209.449219 C 212.0625 210.132812 212.277344 210.832031 212.421875 211.558594 C 212.566406 212.28125 212.636719 213.011719 212.636719 213.75 C 212.636719 214.492188 212.566406 215.222656 212.421875 215.945312 C 212.277344 216.671875 212.0625 217.371094 211.777344 218.054688 C 211.492188 218.734375 211.144531 219.382812 210.734375 219.996094 C 210.320312 220.609375 209.851562 221.175781 209.328125 221.695312 C 208.808594 222.21875 208.242188 222.6875 207.628906 223.101562 C 207.015625 223.511719 206.371094 223.859375 205.6875 224.144531 C 205.007812 224.429688 204.304688 224.644531 203.578125 224.789062 C 202.855469 224.933594 202.125 225.003906 201.386719 225.003906 C 200.648438 225.003906 199.914062 224.933594 199.191406 224.789062 C 198.46875 224.644531 197.765625 224.429688 197.082031 224.144531 C 196.402344 223.859375 195.753906 223.511719 195.140625 223.101562 C 194.527344 222.6875 193.960938 222.21875 193.441406 221.695312 L 92.75 121.003906 C 92.226562 120.484375 91.757812 119.917969 91.34375 119.304688 C 90.933594 118.691406 90.585938 118.042969 90.300781 117.363281 C 90.015625 116.679688 89.800781 115.976562 89.65625 115.253906 C 89.511719 114.527344 89.441406 113.796875 89.441406 113.058594 C 89.441406 112.320312 89.511719 111.589844 89.65625 110.867188 C 89.800781 110.140625 90.015625 109.4375 90.300781 108.757812 C 90.585938 108.074219 90.933594 107.429688 91.34375 106.816406 C 91.757812 106.203125 92.226562 105.636719 92.75 105.117188 L 193.441406 4.421875 C 193.964844 3.902344 194.53125 3.4375 195.144531 3.027344 C 195.757812 2.617188 196.40625 2.269531 197.085938 1.988281 C 197.765625 1.707031 198.46875 1.492188 199.195312 1.347656 C 199.917969 1.203125 200.648438 1.132812 201.386719 1.132812 C 202.121094 1.132812 202.851562 1.203125 203.578125 1.347656 C 204.300781 1.492188 205.003906 1.707031 205.683594 1.988281 C 206.367188 2.269531 207.011719 2.617188 207.625 3.027344 C 208.238281 3.4375 208.808594 3.902344 209.328125 4.421875 C 209.851562 4.945312 210.316406 5.511719 210.726562 6.125 C 211.136719 6.738281 211.480469 7.386719 211.765625 8.066406 C 212.046875 8.75 212.257812 9.453125 212.402344 10.175781 C 212.546875 10.898438 212.617188 11.628906 212.617188 12.367188 C 212.617188 13.105469 212.546875 13.835938 212.402344 14.558594 C 212.257812 15.28125 212.046875 15.984375 211.765625 16.664062 C 211.480469 17.347656 211.136719 17.996094 210.726562 18.609375 C 210.316406 19.222656 209.851562 19.789062 209.328125 20.308594 L 116.46875 113.058594 Z M 38.152344 113.058594 L 131.011719 20.308594 C 131.535156 19.789062 132 19.222656 132.410156 18.609375 C 132.820312 17.996094 133.164062 17.347656 133.449219 16.664062 C 133.730469 15.984375 133.941406 15.28125 134.085938 14.558594 C 134.230469 13.835938 134.300781 13.105469 134.300781 12.367188 C 134.300781 11.628906 134.230469 10.898438 134.085938 10.175781 C 133.941406 9.453125 133.730469 8.75 133.449219 8.066406 C 133.164062 7.386719 132.820312 6.738281 132.410156 6.125 C 132 5.511719 131.535156 4.945312 131.011719 4.421875 C 130.492188 3.902344 129.921875 3.4375 129.308594 3.027344 C 128.695312 2.617188 128.050781 2.269531 127.367188 1.988281 C 126.6875 1.707031 125.984375 1.492188 125.261719 1.347656 C 124.535156 1.203125 123.804688 1.132812 123.070312 1.132812 C 122.332031 1.132812 121.601562 1.203125 120.878906 1.347656 C 120.152344 1.492188 119.449219 1.707031 118.769531 1.988281 C 118.089844 2.269531 117.441406 2.617188 116.828125 3.027344 C 116.214844 3.4375 115.648438 3.902344 115.125 4.421875 L 14.433594 105.117188 C 13.910156 105.636719 13.441406 106.203125 13.027344 106.816406 C 12.617188 107.429688 12.269531 108.074219 11.984375 108.757812 C 11.699219 109.4375 11.484375 110.140625 11.339844 110.867188 C 11.195312 111.589844 11.125 112.320312 11.125 113.058594 C 11.125 113.796875 11.195312 114.527344 11.339844 115.253906 C 11.484375 115.976562 11.699219 116.679688 11.984375 117.363281 C 12.269531 118.042969 12.617188 118.691406 13.027344 119.304688 C 13.441406 119.917969 13.910156 120.484375 14.433594 121.003906 L 115.125 221.695312 C 115.644531 222.21875 116.210938 222.6875 116.824219 223.101562 C 117.4375 223.511719 118.085938 223.859375 118.765625 224.144531 C 119.449219 224.429688 120.152344 224.644531 120.875 224.789062 C 121.597656 224.933594 122.332031 225.003906 123.070312 225.003906 C 123.808594 225.003906 124.539062 224.933594 125.261719 224.789062 C 125.988281 224.644531 126.691406 224.429688 127.371094 224.144531 C 128.054688 223.859375 128.699219 223.511719 129.3125 223.101562 C 129.925781 222.6875 130.492188 222.21875 131.011719 221.695312 C 131.535156 221.175781 132.003906 220.609375 132.417969 219.996094 C 132.828125 219.382812 133.175781 218.734375 133.460938 218.054688 C 133.746094 217.371094 133.960938 216.671875 134.105469 215.945312 C 134.25 215.222656 134.320312 214.492188 134.320312 213.75 C 134.320312 213.011719 134.25 212.28125 134.105469 211.558594 C 133.960938 210.832031 133.746094 210.132812 133.460938 209.449219 C 133.175781 208.769531 132.828125 208.121094 132.417969 207.507812 C 132.003906 206.894531 131.535156 206.328125 131.011719 205.808594 Z M 38.152344 113.058594 " fill-opacity="1" fill-rule="nonzero"/></g></svg>