<svg xmlns="http://www.w3.org/2000/svg" xmlns:xlink="http://www.w3.org/1999/xlink" width="300" zoomAndPan="magnify" viewBox="0 0 224.87999 225" height="300" preserveAspectRatio="xMidYMid meet" version="1.0"><defs><clipPath id="74bcab369f"><path d="M 2.628906 54 L 71 54 L 71 164 L 2.628906 164 Z M 2.628906 54 " clip-rule="nonzero"/></clipPath><clipPath id="cfb405035d"><path d="M 154 54 L 222.261719 54 L 222.261719 164 L 154 164 Z M 154 54 " clip-rule="nonzero"/></clipPath><clipPath id="8e410dc8da"><path d="M 81 46 L 143 46 L 143 179.558594 L 81 179.558594 Z M 81 46 " clip-rule="nonzero"/></clipPath></defs><g clip-path="url(#74bcab369f)"><path fill="#ffffff" d="M 67.09375 146.984375 L 60.472656 140.804688 L 26.484375 108.984375 L 60.472656 77.183594 L 67.09375 71.003906 C 70.988281 67.359375 71.199219 61.21875 67.554688 57.320312 C 63.910156 53.425781 57.765625 53.214844 53.871094 56.859375 L 5.699219 101.921875 C 3.742188 103.746094 2.628906 106.316406 2.628906 108.984375 C 2.628906 111.671875 3.742188 114.222656 5.699219 116.046875 L 53.871094 161.109375 C 55.734375 162.855469 58.113281 163.71875 60.472656 163.71875 C 63.0625 163.71875 65.636719 162.683594 67.535156 160.648438 C 71.199219 156.753906 70.988281 150.628906 67.09375 146.984375 Z M 67.09375 146.984375 " fill-opacity="1" fill-rule="nonzero"/></g><g clip-path="url(#cfb405035d)"><path fill="#ffffff" d="M 219.167969 101.921875 L 170.996094 56.859375 C 167.101562 53.195312 160.960938 53.40625 157.3125 57.300781 C 153.667969 61.199219 153.859375 67.339844 157.773438 70.984375 L 164.394531 77.164062 L 181.859375 93.515625 L 198.382812 108.984375 L 164.375 140.785156 L 157.753906 146.964844 C 153.859375 150.609375 153.648438 156.753906 157.292969 160.648438 C 159.195312 162.683594 161.785156 163.71875 164.355469 163.71875 C 166.71875 163.71875 169.097656 162.855469 170.976562 161.109375 L 219.148438 116.046875 C 221.105469 114.222656 222.21875 111.652344 222.21875 108.984375 C 222.238281 106.296875 221.125 103.746094 219.167969 101.921875 Z M 219.167969 101.921875 " fill-opacity="1" fill-rule="nonzero"/></g><g clip-path="url(#8e410dc8da)"><path fill="#ffffff" d="M 136.492188 47.285156 C 131.480469 45.421875 125.898438 47.976562 124.035156 52.984375 L 81.8125 166.5 C 79.953125 171.511719 82.503906 177.097656 87.515625 178.957031 C 88.628906 179.378906 89.757812 179.570312 90.890625 179.570312 C 94.824219 179.570312 98.511719 177.152344 99.96875 173.257812 L 142.191406 59.71875 C 144.050781 54.710938 141.519531 49.144531 136.492188 47.285156 Z M 136.492188 47.285156 " fill-opacity="1" fill-rule="nonzero"/></g></svg>